<?xml version="1.0" standalone="no"?><!DOCTYPE svg PUBLIC "-//W3C//DTD SVG 1.1//EN" "http://www.w3.org/Graphics/SVG/1.1/DTD/svg11.dtd"><svg t="1732759185024" class="icon" viewBox="0 0 1024 1024" version="1.1" xmlns="http://www.w3.org/2000/svg" p-id="9815" xmlns:xlink="http://www.w3.org/1999/xlink" width="200" height="200"><path d="M298.688 170.688h42.688v42.688h-42.688z" p-id="9816"></path><path d="M341.312 170.688H384v42.688h-42.688z" fill="#FFF100" p-id="9817"></path><path d="M384 170.688h42.688v42.688H384zM426.688 170.688h42.688v42.688h-42.688z" fill="#E50046" p-id="9818"></path><path d="M469.312 170.688H512v42.688h-42.688z" fill="#E50046" p-id="9819"></path><path d="M298.688 213.312h42.688V256h-42.688z" p-id="9820"></path><path d="M341.312 213.312H384V256h-42.688zM384 213.312h42.688V256H384zM426.688 213.312h42.688V256h-42.688z" fill="#E50046" p-id="9821"></path><path d="M469.312 213.312H512V256h-42.688z" fill="#E50046" p-id="9822"></path><path d="M256 256h42.688v42.688H256z" p-id="9823"></path><path d="M298.688 256h42.688v42.688h-42.688z" fill="#E50046" p-id="9824"></path><path d="M341.312 256H384v42.688h-42.688zM384 256h42.688v42.688H384z" fill="#E50046" p-id="9825"></path><path d="M426.688 256h42.688v42.688h-42.688z" fill="#FFF100" p-id="9826"></path><path d="M469.312 256H512v42.688h-42.688z" fill="#FFF100" p-id="9827"></path><path d="M256 298.688h42.688v42.688H256z" p-id="9828"></path><path d="M298.688 298.688h42.688v42.688h-42.688z" fill="#E50046" p-id="9829"></path><path d="M341.312 298.688H384v42.688h-42.688zM384 298.688h42.688v42.688H384z" fill="#E50046" p-id="9830"></path><path d="M426.688 298.688h42.688v42.688h-42.688z" fill="#FFF100" p-id="9831"></path><path d="M469.312 298.688H512v42.688h-42.688z" fill="#FFF100" p-id="9832"></path><path d="M512 170.688h42.688v42.688H512z" fill="#E50046" p-id="9833"></path><path d="M512 213.312h42.688V256H512zM512 256h42.688v42.688H512zM512 298.688h42.688v42.688H512z" fill="#FFF100" p-id="9834"></path><path d="M554.688 170.688h42.688v42.688h-42.688z" fill="#E50046" p-id="9835"></path><path d="M554.688 213.312h42.688V256h-42.688zM554.688 256h42.688v42.688h-42.688z" fill="#FFF100" p-id="9836"></path><path d="M554.688 298.688h42.688v42.688h-42.688zM597.312 170.688H640v42.624h-42.688z" fill="#E50046" p-id="9837"></path><path d="M597.312 213.312H640V256h-42.688zM597.312 256H640v42.688h-42.688z" fill="#FFF100" p-id="9838"></path><path d="M597.312 298.688H640v42.688h-42.688z" fill="#E50046" p-id="9839"></path><path d="M640 213.312h42.688V256H640zM640 256h42.688v42.688H640zM682.688 213.312h42.624V256h-42.624z" fill="#FFF100" p-id="9840"></path><path d="M640 170.688h42.688v42.624H640zM682.688 170.688h42.688v42.624h-42.688z" fill="#E50046" p-id="9841"></path><path d="M725.312 170.688H768v42.624h-42.688z" fill="#E50046" p-id="9842"></path><path d="M426.688 42.688h42.688v42.688h-42.688z" p-id="9843"></path><path d="M469.312 42.688H512v42.688h-42.688zM384 85.312h42.688V128H384z" p-id="9844"></path><path d="M426.688 85.312h42.688V128h-42.688z" fill="#FFF100" p-id="9845"></path><path d="M469.312 85.312H512V128h-42.688zM512 42.688h42.688v42.688H512z" fill="#FFF100" p-id="9846"></path><path d="M512 85.312h42.688V128H512zM554.688 42.688h42.688v42.688h-42.688z" fill="#FFF100" p-id="9847"></path><path d="M554.688 85.312h42.688V128h-42.688z" fill="#FFF100" p-id="9848"></path><path d="M597.312 42.688H640v42.688h-42.688z" fill="#FFF100" p-id="9849"></path><path d="M597.312 85.312H640V128h-42.688zM640 42.688h42.688v42.688H640z" fill="#FFF100" p-id="9850"></path><path d="M640 85.312h42.688V128H640zM682.688 42.688h42.688v42.688h-42.688z" fill="#FFF100" p-id="9851"></path><path d="M682.688 85.312h42.688V128h-42.688z" fill="#FFF100" p-id="9852"></path><path d="M725.312 42.688H768v42.688h-42.688z" fill="#FFF100" p-id="9853"></path><path d="M725.312 85.312H768V128h-42.688z" fill="#FFF100" p-id="9854"></path><path d="M768 42.688h42.688v42.688H768z" p-id="9855"></path><path d="M768 85.312h42.688V128H768zM682.688 298.688h42.688v42.688h-42.688zM725.312 256H768v42.688h-42.688z" fill="#FFF100" p-id="9856"></path><path d="M725.312 298.688H768v42.688h-42.688z" fill="#FFF100" p-id="9857"></path><path d="M768 213.312h42.688V256H768zM768 256h42.688v42.688H768zM768 298.688h42.688v42.688H768z" fill="#E50046" p-id="9858"></path><path d="M810.688 170.688h42.688v42.688h-42.688z" fill="#FFF100" p-id="9859"></path><path d="M810.688 213.312h42.688V256h-42.688z" fill="#FFF100" p-id="9860"></path><path d="M810.688 256h42.688v42.688h-42.688zM810.688 298.688h42.688v42.688h-42.688z" fill="#E50046" p-id="9861"></path><path d="M853.312 213.312H896V256h-42.688zM853.312 256H896v42.688h-42.688zM853.312 298.688H896v42.688h-42.688zM896 256h42.688v42.688H896zM896 298.688h42.688v42.688H896z" fill="#FFF100" p-id="9862"></path><path d="M938.624 298.688h42.688v42.688h-42.688z" fill="#E50046" p-id="9863"></path><path d="M682.688 384h42.688v42.688h-42.688zM682.688 426.688h42.688v42.688h-42.688z" fill="#FFF100" p-id="9864"></path><path d="M682.688 469.312h42.688V512h-42.688zM725.312 384H768v42.688h-42.688z" fill="#FFF100" p-id="9865"></path><path d="M725.312 426.688H768v42.688h-42.688z" fill="#FFF100" p-id="9866"></path><path d="M725.312 469.312H768V512h-42.688zM682.688 512h42.688v42.688h-42.688z" fill="#E50046" p-id="9867"></path><path d="M725.312 512H768v42.688h-42.688zM768 384h42.688v42.688H768zM768 426.688h42.688v42.688H768z" fill="#E50046" p-id="9868"></path><path d="M768 469.312h42.688V512H768z" fill="#E50046" p-id="9869"></path><path d="M768 512h42.688v42.688H768z" fill="#FFF100" p-id="9870"></path><path d="M682.688 554.688h42.688v42.688h-42.688z" fill="#E50046" p-id="9871"></path><path d="M682.688 597.312h42.688V640h-42.688z" fill="#FFF100" p-id="9872"></path><path d="M725.312 554.688H768v42.688h-42.688z" fill="#FFF100" p-id="9873"></path><path d="M725.312 597.312H768V640h-42.688zM682.688 640h42.688v42.688h-42.688z" fill="#FFF100" p-id="9874"></path><path d="M725.312 640H768v42.688h-42.688zM768 554.688h42.688v42.688H768z" fill="#FFF100" p-id="9875"></path><path d="M768 597.312h42.688V640H768z" fill="#FFF100" p-id="9876"></path><path d="M768 640h42.688v42.688H768zM682.688 682.688h42.688v42.688h-42.688z" fill="#E50046" p-id="9877"></path><path d="M725.312 682.688H768v42.688h-42.688z" fill="#E50046" p-id="9878"></path><path d="M768 682.688h42.688v42.688H768zM682.688 725.312h42.688V768h-42.688z" p-id="9879"></path><path d="M725.312 725.312H768V768h-42.688z" p-id="9880"></path><path d="M810.688 384h42.688v42.688h-42.688zM810.688 426.688h42.688v42.688h-42.688z" fill="#E50046" p-id="9881"></path><path d="M810.688 469.312h42.688V512h-42.688zM810.688 512h42.688v42.688h-42.688zM810.688 554.688h42.688v42.688h-42.688z" fill="#FFF100" p-id="9882"></path><path d="M810.688 597.312h42.688V640h-42.688z" fill="#FFF100" p-id="9883"></path><path d="M810.688 640h42.688v42.688h-42.688z" fill="#E50046" p-id="9884"></path><path d="M810.688 682.688h42.688v42.688h-42.688z" p-id="9885"></path><path d="M853.312 384H896v42.688h-42.688zM853.312 426.688H896v42.688h-42.688z" fill="#FFF100" p-id="9886"></path><path d="M853.312 469.312H896V512h-42.688zM896 384h42.688v42.688H896zM896 426.688h42.688v42.688H896z" fill="#FFF100" p-id="9887"></path><path d="M896 469.312h42.688V512H896zM853.312 512H896v42.688h-42.688z" fill="#FFF100" p-id="9888"></path><path d="M896 512h42.688v42.688H896zM938.624 384h42.688v42.688h-42.688zM938.688 426.688h42.688v42.688h-42.688z" fill="#E50046" p-id="9889"></path><path d="M938.688 469.312h42.688V512h-42.688z" fill="#E50046" p-id="9890"></path><path d="M938.688 512h42.688v42.688h-42.688z" p-id="9891"></path><path d="M853.312 554.688H896v42.688h-42.688z" fill="#FFF100" p-id="9892"></path><path d="M853.312 597.312H896V640h-42.688zM896 554.688h42.688v42.688H896z" fill="#E50046" p-id="9893"></path><path d="M896 597.312h42.688V640H896zM853.312 640H896v42.688h-42.688zM938.688 554.688h42.688v42.688h-42.688zM256 384h42.688v42.688H256z" p-id="9894"></path><path d="M298.688 384h42.688v42.688h-42.688z" fill="#E50046" p-id="9895"></path><path d="M341.312 384H384v42.688h-42.688z" fill="#E50046" p-id="9896"></path><path d="M384 384h42.688v42.688H384zM426.688 384h42.688v42.688h-42.688z" fill="#FFF100" p-id="9897"></path><path d="M469.312 384H512v42.688h-42.688z" fill="#E50046" p-id="9898"></path><path d="M256 426.688h42.688v42.688H256z" p-id="9899"></path><path d="M298.688 426.688h42.688v42.688h-42.688z" fill="#E50046" p-id="9900"></path><path d="M341.312 426.688H384v42.688h-42.688z" fill="#E50046" p-id="9901"></path><path d="M384 426.688h42.688v42.688H384zM426.688 426.688h42.688v42.688h-42.688z" fill="#FFF100" p-id="9902"></path><path d="M469.312 426.688H512v42.688h-42.688zM298.688 469.312h42.688V512h-42.688z" fill="#E50046" p-id="9903"></path><path d="M384 469.312h42.688V512H384zM426.688 469.312h42.688V512h-42.688z" fill="#FFF100" p-id="9904"></path><path d="M512 384h42.688v42.688H512zM512 426.688h42.688v42.688H512z" fill="#E50046" p-id="9905"></path><path d="M512 469.312h42.688V512H512z" fill="#E50046" p-id="9906"></path><path d="M298.688 512h42.688v42.688h-42.688z" p-id="9907"></path><path d="M384 512h42.688v42.688H384z" fill="#E50046" p-id="9908"></path><path d="M426.688 512h42.688v42.688h-42.688z" fill="#FFF100" p-id="9909"></path><path d="M554.688 384h42.688v42.688h-42.688zM554.688 426.688h42.688v42.688h-42.688z" fill="#E50046" p-id="9910"></path><path d="M597.312 384H640v42.688h-42.688zM597.312 426.688H640v42.688h-42.688z" fill="#E50046" p-id="9911"></path><path d="M597.312 469.312H640V512h-42.688zM554.688 512h42.688v42.688h-42.688z" fill="#E50046" p-id="9912"></path><path d="M597.312 512H640v42.688h-42.688z" fill="#E50046" p-id="9913"></path><path d="M298.688 554.688h42.688v42.688h-42.688z" p-id="9914"></path><path d="M384 554.688h42.688v42.688H384z" fill="#E50046" p-id="9915"></path><path d="M426.688 554.688h42.688v42.688h-42.688z" fill="#FFF100" p-id="9916"></path><path d="M298.688 597.312h42.688V640h-42.688z" p-id="9917"></path><path d="M426.688 597.312h42.688V640h-42.688z" fill="#E50046" p-id="9918"></path><path d="M512 554.688h42.688v42.688H512z" fill="#FFF100" p-id="9919"></path><path d="M512 597.312h42.688V640H512z" fill="#FFF100" p-id="9920"></path><path d="M256 640h42.688v42.688H256z" p-id="9921"></path><path d="M298.688 640h42.688v42.688h-42.688z" fill="#FFFFFF" p-id="9922"></path><path d="M341.312 640H384v42.688h-42.688z" p-id="9923"></path><path d="M384 640h42.688v42.688H384zM426.688 640h42.688v42.688h-42.688z" fill="#E50046" p-id="9924"></path><path d="M469.312 640H512v42.688h-42.688zM512 640h42.688v42.688H512zM597.312 554.688H640v42.688h-42.688z" fill="#E50046" p-id="9925"></path><path d="M597.312 597.312H640V640h-42.688zM554.688 640h42.688v42.688h-42.688z" fill="#FFF100" p-id="9926"></path><path d="M597.312 640H640v42.688h-42.688z" fill="#FFF100" p-id="9927"></path><path d="M213.312 682.688H256v42.688h-42.688z" p-id="9928"></path><path d="M256 682.688h42.688v42.688H256zM298.688 682.688h42.688v42.688h-42.688z" fill="#FFFFFF" p-id="9929"></path><path d="M341.312 682.688H384v42.688h-42.688z" fill="#E3E7E6" p-id="9930"></path><path d="M384 682.688h42.688v42.688H384zM426.688 682.688h42.688v42.688h-42.688z" p-id="9931"></path><path d="M469.312 682.688H512v42.688h-42.688z" p-id="9932"></path><path d="M512 682.688h42.688v42.688H512zM554.688 682.688h42.688v42.688h-42.688z" fill="#E50046" p-id="9933"></path><path d="M597.312 682.688H640v42.688h-42.688z" fill="#E50046" p-id="9934"></path><path d="M170.688 725.312h42.688V768h-42.688zM341.312 725.312H384V768h-42.688zM128 768h42.688v42.688H128zM512 725.312h42.688V768H512zM554.688 725.312h42.688V768h-42.688z" p-id="9935"></path><path d="M213.312 768H256v42.688h-42.688z" fill="#FFFFFF" p-id="9936"></path><path d="M256 768h42.688v42.688H256z" fill="#E3E7E6" p-id="9937"></path><path d="M298.688 768h42.688v42.688h-42.688z" p-id="9938"></path><path d="M170.688 810.688h42.688v42.688h-42.688z" fill="#FFFFFF" p-id="9939"></path><path d="M213.312 810.688H256v42.688h-42.688z" fill="#E3E7E6" p-id="9940"></path><path d="M256 810.688h42.688v42.688H256z" p-id="9941"></path><path d="M85.312 853.312H128V896h-42.688zM128 853.312h42.688V896H128z" fill="#FFFFFF" p-id="9942"></path><path d="M170.688 853.312h42.688V896h-42.688z" fill="#E3E7E6" p-id="9943"></path><path d="M213.312 853.312H256V896h-42.688z" p-id="9944"></path><path d="M42.688 896h42.688v42.688H42.688z" fill="#FFFFFF" p-id="9945"></path><path d="M85.312 896H128v42.688h-42.688z" fill="#FFFFFF" p-id="9946"></path><path d="M128 896h42.688v42.688H128z" fill="#E3E7E6" p-id="9947"></path><path d="M170.688 896h42.688v42.688h-42.688z" p-id="9948"></path><path d="M42.688 938.688h42.688v42.688H42.688z" fill="#E3E7E6" p-id="9949"></path><path d="M85.312 938.688H128v42.688h-42.688z" fill="#E3E7E6" p-id="9950"></path><path d="M128 938.688h42.688v42.688H128zM597.312 725.312H640V768h-42.688zM42.688 853.312h42.688V896H42.688zM341.312 128H384v42.688h-42.688z" p-id="9951"></path><path d="M384 128h42.688v42.688H384z" fill="#FFF100" p-id="9952"></path><path d="M426.688 128h42.688v42.688h-42.688z" fill="#E50046" p-id="9953"></path><path d="M469.312 128H512v42.688h-42.688z" fill="#E50046" p-id="9954"></path><path d="M256 341.312h42.688V384H256z" p-id="9955"></path><path d="M298.688 341.312h42.688V384h-42.688z" fill="#E50046" p-id="9956"></path><path d="M341.312 341.312H384V384h-42.688z" fill="#E50046" p-id="9957"></path><path d="M384 341.312h42.688V384H384zM426.688 341.312h42.688V384h-42.688z" fill="#FFF100" p-id="9958"></path><path d="M469.312 341.312H512V384h-42.688z" fill="#FFF100" p-id="9959"></path><path d="M512 0h42.688v42.688H512z" p-id="9960"></path><path d="M512 128h42.688v42.688H512zM512 341.312h42.688V384H512z" fill="#E50046" p-id="9961"></path><path d="M554.688 0h42.688v42.688h-42.688z" p-id="9962"></path><path d="M554.688 128h42.688v42.688h-42.688zM554.688 341.312h42.688V384h-42.688z" fill="#E50046" p-id="9963"></path><path d="M597.312 0H640v42.688h-42.688z" p-id="9964"></path><path d="M597.312 128H640v42.688h-42.688zM597.312 341.312H640V384h-42.688z" fill="#E50046" p-id="9965"></path><path d="M640 0h42.688v42.688H640z" p-id="9966"></path><path d="M640 128h42.688v42.688H640zM640 298.688h42.688v42.688H640z" fill="#E50046" p-id="9967"></path><path d="M640 341.312h42.688V384H640zM640 384h42.688v42.688H640z" fill="#E50046" p-id="9968"></path><path d="M640 426.688h42.688v42.688H640z" fill="#FFF100" p-id="9969"></path><path d="M640 469.312h42.688V512H640z" fill="#FFF100" p-id="9970"></path><path d="M640 512h42.688v42.688H640zM640 554.688h42.688v42.688H640z" fill="#E50046" p-id="9971"></path><path d="M640 597.312h42.688V640H640zM640 640h42.688v42.688H640z" fill="#FFF100" p-id="9972"></path><path d="M682.688 0h42.688v42.688h-42.688z" p-id="9973"></path><path d="M682.688 128h42.688v42.688h-42.688z" fill="#E50046" p-id="9974"></path><path d="M682.688 256h42.688v42.688h-42.688zM682.688 341.312h42.688V384h-42.688z" fill="#FFF100" p-id="9975"></path><path d="M725.312 0H768v42.688h-42.688z" p-id="9976"></path><path d="M725.312 128H768v42.688h-42.688z" fill="#FFF100" p-id="9977"></path><path d="M725.312 213.312H768V256h-42.688z" fill="#E50046" p-id="9978"></path><path d="M725.312 341.312H768V384h-42.688z" fill="#FFF100" p-id="9979"></path><path d="M853.312 85.312H896V128h-42.688z" p-id="9980"></path><path d="M853.312 128H896v42.688h-42.688z" fill="#E50046" p-id="9981"></path><path d="M896 128h42.688v42.688H896z" p-id="9982"></path><path d="M896 170.688h42.688v42.688H896z" fill="#E50046" p-id="9983"></path><path d="M938.624 170.688h42.688v42.688h-42.688z" p-id="9984"></path><path d="M938.624 213.312h42.688V256h-42.688zM981.312 256H1024v42.688h-42.688z" p-id="9985"></path><path d="M768 128h42.688v42.688H768zM768 170.688h42.688v42.688H768z" fill="#FFF100" p-id="9986"></path><path d="M768 341.312h42.688V384H768zM640 682.688h42.688v42.688H640z" fill="#E50046" p-id="9987"></path><path d="M640 725.312h42.688V768H640zM810.688 42.688h42.688v42.688h-42.688z" p-id="9988"></path><path d="M810.624 85.312h42.688V128h-42.688z" fill="#E50046" p-id="9989"></path><path d="M810.688 128h42.688v42.688h-42.688z" fill="#FFF100" p-id="9990"></path><path d="M810.688 341.312h42.688V384h-42.688z" fill="#E50046" p-id="9991"></path><path d="M853.312 170.688H896v42.688h-42.688zM853.312 341.312H896V384h-42.688zM896 213.312h42.688V256H896zM896 341.312h42.688V384H896z" fill="#FFF100" p-id="9992"></path><path d="M938.624 256h42.688v42.688h-42.688zM938.624 341.312h42.688V384h-42.688z" fill="#E50046" p-id="9993"></path><path d="M981.312 298.688H1024v42.688h-42.688z" p-id="9994"></path><path d="M981.312 341.312H1024V384h-42.688zM981.312 384H1024v42.688h-42.688zM981.312 426.688H1024v42.688h-42.688z" p-id="9995"></path><path d="M981.312 469.312H1024V512h-42.688zM0 896h42.688v42.688H0zM0 938.688h42.688v42.624H0zM42.688 981.312h42.688V1024H42.688z" p-id="9996"></path><path d="M85.312 981.312H128V1024h-42.688zM256 469.312h42.688V512H256z" p-id="9997"></path><path d="M341.312 469.312H384V512h-42.688z" fill="#E50046" p-id="9998"></path><path d="M469.312 469.312H512V512h-42.688z" fill="#FFF100" p-id="9999"></path><path d="M341.312 512H384v42.688h-42.688z" fill="#E50046" p-id="10000"></path><path d="M469.312 512H512v42.688h-42.688z" fill="#FFF100" p-id="10001"></path><path d="M512 512h42.688v42.688H512zM554.688 469.312h42.688V512h-42.688zM341.312 554.688H384v42.688h-42.688z" fill="#E50046" p-id="10002"></path><path d="M469.312 554.688H512v42.688h-42.688z" fill="#FFF100" p-id="10003"></path><path d="M341.312 597.312H384V640h-42.688zM384 597.312h42.688V640H384z" fill="#E50046" p-id="10004"></path><path d="M469.312 597.312H512V640h-42.688zM554.688 554.688h42.688v42.688h-42.688z" fill="#FFF100" p-id="10005"></path><path d="M554.688 597.312h42.688V640h-42.688z" fill="#FFF100" p-id="10006"></path><path d="M213.312 725.312H256V768h-42.688zM256 725.312h42.688V768H256z" fill="#FFFFFF" p-id="10007"></path><path d="M298.688 725.312h42.688V768h-42.688z" fill="#E3E7E6" p-id="10008"></path><path d="M170.688 768h42.688v42.688h-42.688z" fill="#FFFFFF" p-id="10009"></path><path d="M85.312 810.688H128v42.688h-42.688z" p-id="10010"></path><path d="M128 810.688h42.688v42.688H128z" fill="#FFFFFF" p-id="10011"></path></svg>