<?xml version="1.0" standalone="no"?><!DOCTYPE svg PUBLIC "-//W3C//DTD SVG 1.1//EN" "http://www.w3.org/Graphics/SVG/1.1/DTD/svg11.dtd"><svg t="1732760848162" class="icon" viewBox="0 0 1231 1024" version="1.1" xmlns="http://www.w3.org/2000/svg" p-id="916" xmlns:xlink="http://www.w3.org/1999/xlink" width="240.4296875" height="200"><path d="M733.35405 79.190802h256.347444a59.052214 59.052214 0 0 1 58.999769 58.999769v256.373666a39.595401 39.595401 0 0 0 79.190802 0V138.190571A138.347904 138.347904 0 0 0 989.701494 0h-256.347444a39.595401 39.595401 0 0 0 0 79.190802z" p-id="917"></path><path d="M696.905304 225.798674h176.789532A28.424778 28.424778 0 0 1 902.040947 254.197229v176.815754a39.595401 39.595401 0 1 0 79.190802 0V254.197229a107.720468 107.720468 0 0 0-107.510691-107.510691h-176.815754a39.595401 39.595401 0 1 0 0 79.190802zM358.115516 146.607872a107.720468 107.720468 0 0 0-107.510691 107.510691v176.815754a39.595401 39.595401 0 0 0 79.190802 0v-176.737088a28.451 28.451 0 0 1 28.424778-28.398555h174.403318a39.595401 39.595401 0 0 0 0-79.190802z" p-id="918"></path><path d="M143.487466 434.159637a39.647845 39.647845 0 0 0 39.595401-39.5954V138.190571a59.078436 59.078436 0 0 1 59.025991-58.999769h252.886124a39.595401 39.595401 0 0 0 0-79.190802H242.108858a138.374126 138.374126 0 0 0-138.216793 138.190571v256.373666a39.674067 39.674067 0 0 0 39.595401 39.5954zM498.456301 944.809198H242.108858a59.104658 59.104658 0 0 1-59.025991-58.999769V629.330875a39.595401 39.595401 0 0 0-79.190802 0v256.373665a138.374126 138.374126 0 0 0 138.216793 138.190572h256.347443a39.595401 39.595401 0 0 0 0-79.190802z" p-id="919"></path><path d="M534.93127 798.201326h-176.815754a28.451 28.451 0 0 1-28.424778-28.398555v-176.815754a39.595401 39.595401 0 0 0-79.190801 0v176.815754a107.720468 107.720468 0 0 0 107.510691 107.510691H534.93127a39.595401 39.595401 0 0 0 0-79.190802zM873.694836 877.392128a107.720468 107.720468 0 0 0 107.510691-107.510691v-176.89442a39.595401 39.595401 0 0 0-79.190802 0v176.815754a28.424778 28.424778 0 0 1-28.398556 28.398555h-176.710865a39.595401 39.595401 0 1 0 0 79.190802z" p-id="920"></path><path d="M1088.217998 589.840363a39.647845 39.647845 0 0 0-39.595401 39.5954v256.373666a59.078436 59.078436 0 0 1-58.99977 58.999769h-256.268777a39.595401 39.595401 0 0 0 0 79.190802h256.347444a138.347904 138.347904 0 0 0 138.190571-138.190571V629.330875A39.621623 39.621623 0 0 0 1088.217998 589.840363zM1209.941078 490.143863H21.869274A21.843026 21.843026 0 0 0 0.000026 511.986889a21.843026 21.843026 0 0 0 21.869248 21.869248h1188.071804a21.869248 21.869248 0 0 0 21.869248-21.869248 21.869248 21.869248 0 0 0-21.869248-21.843026z" p-id="921"></path></svg>