<?xml version="1.0" standalone="no"?><!DOCTYPE svg PUBLIC "-//W3C//DTD SVG 1.1//EN" "http://www.w3.org/Graphics/SVG/1.1/DTD/svg11.dtd"><svg t="1732760542009" class="icon" viewBox="0 0 1024 1024" version="1.1" xmlns="http://www.w3.org/2000/svg" p-id="1123" xmlns:xlink="http://www.w3.org/1999/xlink" width="200" height="200"><path d="M419.2 0l12.8 0.64c138.88 0 256 109.44 256 256 0 138.88-117.12 256-256 256s-256-117.12-256-263.04c0-138.88 117.12-256 256-248.32L419.2 0z m524.16 695.04a35.2 35.2 0 0 0-51.2 0L768 812.16l-51.2-44.16a35.2 35.2 0 0 0-51.2 0 35.2 35.2 0 0 0 0 51.2l72.96 72.96c14.72 14.72 36.48 14.72 51.2 0l145.92-145.92c14.72-7.68 14.72-36.48 7.68-51.2z m-409.6-146.56c36.48 0 72.96 7.04 102.4 21.76-72.96 51.2-117.12 131.84-117.12 226.56 0 72.96 29.44 145.92 80.64 197.12H328.96c-182.4 0.64-328.96-6.4-328.96-79.36v-21.76c0-190.08 145.92-343.68 328.96-343.68h204.8z m263.68 7.68c124.16 0 226.56 102.4 226.56 234.24S921.6 1024 797.44 1024s-226.56-102.4-226.56-234.24 101.76-233.6 226.56-233.6z" p-id="1124" fill="#e6e6e6"></path></svg>